<?xml version="1.0" encoding="utf-8"?>
<svg viewBox="0 0 64 64" xmlns="http://www.w3.org/2000/svg" xmlns:bx="https://boxy-svg.com" height="64px">
  <defs>
    <bx:grid x="0" y="0" width="64" height="64"/>
  </defs>
  <g transform="matrix(0.341978, 0, 0, 0.341978, -1.07513, -0.27737)">
    <g transform="matrix(0.283555, 0, 0, 0.283555, 3.164114, 1.670931)">
      <title>Logo</title>
      <path d="M 659.929 326.968 A 330 330 0 0 1 329.929 656.968 A 330 330 0 0 1 -0.071 326.968 A 330 330 0 0 1 329.929 -3.032 A 330 330 0 0 1 659.929 326.968 Z" style="paint-order: fill; stroke-width: 10.3125px;">
        <title>Main circle</title>
      </path>
      <g>
        <title>Inner elements</title>
        <path style="stroke-width: 10.3125px; fill: rgb(255, 255, 255);" d="M 183.116 452.692 C 166.509 452.817 149.205 453.298 133.536 447.795 C 125.588 445.003 116.526 441.327 112.355 434.007 C 108.907 427.956 109.962 419.929 111.476 413.131 C 114.347 400.235 123.605 386.577 132.068 374.797 C 142.187 360.711 149.837 354.883 149.837 354.883 C 149.837 354.883 170.062 372.898 180.557 381.449 C 189.748 388.937 208.776 403.094 208.776 403.094 L 219.287 448.568 C 219.287 448.568 195.251 452.601 183.116 452.692 Z M 402.106 503.462 C 402.106 503.462 396.792 522.817 392.818 531.997 C 388.483 542.011 384.184 552.426 377.056 560.687 C 372.057 566.481 366.33 573.369 358.772 574.569 C 351.455 575.731 343.959 571.357 337.778 567.272 C 328.314 561.017 321.612 551.222 314.901 542.076 C 308.167 532.899 302.806 522.752 297.671 512.593 C 292.147 501.666 287.464 490.313 283.122 478.864 C 278.782 467.418 271.651 443.978 271.651 443.978 C 271.651 443.978 298.227 459.015 311.86 465.876 C 326.206 473.096 340.757 479.944 355.579 486.127 C 370.854 492.499 402.106 503.462 402.106 503.462 Z M 531.46 393.43 C 538.501 404.398 545.93 415.539 549.7 428.015 C 552.211 436.326 555.302 447.845 551.679 455.735 C 548.152 463.416 541.268 465.007 533.333 467.921 C 524.663 471.105 510.346 471.222 501.111 471.121 C 486.979 470.966 461.843 466.091 461.843 466.091 C 461.843 466.091 464.297 444.578 465.107 433.785 C 465.943 422.645 466.75 400.311 466.75 400.311 C 466.75 400.311 481.658 390.007 488.93 384.604 C 496.506 378.975 511.267 367.204 511.267 367.204 C 511.267 367.204 525.499 384.146 531.46 393.43 Z M 486.948 201.269 C 499.187 201.638 514.486 202.756 523.348 206.21 C 532.028 209.593 542.351 213.699 546.293 222.167 C 550.068 230.277 546.335 240.509 543.759 249.075 C 541.295 257.268 536.238 264.666 531.497 271.623 C 525.594 280.285 513.851 294.342 503.812 304.599 C 491.866 316.805 465.287 338.38 465.287 338.38 C 465.287 338.38 462.729 306.62 460.658 290.83 C 458.579 274.974 455.94 259.184 452.838 243.495 C 450.25 230.407 443.844 204.494 443.844 204.494 C 443.844 204.494 472.546 200.835 486.948 201.269 Z M 259.859 146.72 C 259.859 146.72 266.498 122.162 272.139 110.855 C 277.348 100.413 282.515 89.413 291.383 81.991 C 295.864 78.24 300.942 74.693 306.481 74.991 C 317.418 75.58 326.893 84.58 334.634 91.932 C 344.979 101.756 350.85 113.028 359.121 127.035 C 366.496 139.524 377.381 166.615 377.381 166.615 L 339.401 178.986 C 339.401 178.986 313.428 166.739 300.105 161.251 C 286.917 155.819 259.859 146.72 259.859 146.72 Z M 151.486 282.944 C 151.486 282.944 139.87 269.258 134.778 261.884 C 128.35 252.575 121.999 243.013 117.386 232.74 C 112.26 221.326 106.113 207.271 110.996 195.751 C 114.101 188.426 120.969 185.776 127.38 183.387 C 141.766 178.027 156.058 179.528 170.446 180.067 C 182.932 180.535 195.271 183.169 207.499 185.738 C 218.216 187.989 228.775 190.923 239.23 194.255 C 250.811 197.946 273.54 206.608 273.54 206.608 C 273.54 206.608 245.185 221.108 231.375 229.022 C 216.116 237.767 186.454 256.699 186.454 256.699 Z M 231.466 288.657 C 248.139 277.909 265.391 268.014 283.075 259.026 C 306.437 247.152 330.301 236.096 354.885 227.018 C 367.376 222.406 393.183 215.666 393.183 215.666 C 393.183 215.666 399.786 241.916 402.274 255.21 C 406.656 278.62 410.503 302.189 412.533 325.919 C 414.986 354.592 415.646 383.456 414.832 412.223 C 414.451 425.69 411.472 452.499 411.472 452.499 C 411.472 452.499 380.883 441.319 366.102 434.526 C 338.874 422.013 312.233 408.096 286.546 392.664 C 265.676 380.125 245.621 366.201 226.164 351.566 C 212.964 341.637 188.015 319.941 188.015 319.941 C 188.015 319.941 216.466 298.327 231.466 288.657 Z"/>
        <path d="M 607.989 324.859 C 607.989 332.237 606.051 339.44 602.361 346.397 C 598.672 353.354 593.23 360.064 586.222 366.457 C 579.214 372.85 570.64 378.925 560.684 384.61 C 550.729 390.296 539.393 395.591 526.861 400.426 C 514.33 405.262 500.604 409.636 485.868 413.477 C 471.132 417.318 455.386 420.626 438.817 423.33 C 422.248 426.034 401.365 428.296 383.334 429.72 M 161.554 409.284 C 152.614 406.773 147.672 405.262 135.141 400.426 C 122.61 395.591 111.274 390.296 101.319 384.61 C 91.363 378.925 82.788 372.85 75.78 366.457 C 68.772 360.064 63.33 353.354 59.64 346.397 C 55.951 339.44 54.013 332.237 54.013 324.859 C 54.013 317.482 55.951 310.279 59.64 303.322 C 63.33 296.365 68.772 289.654 75.78 283.261 C 82.788 276.869 91.363 270.794 101.319 265.108 C 111.274 259.423 122.61 254.127 135.141 249.292 C 147.672 244.458 161.399 240.084 176.135 236.243 C 190.871 232.402 206.616 229.093 223.185 226.389 C 239.754 223.686 257.147 221.586 275.178 220.162 C 293.209 218.739 311.879 217.991 331.001 217.991 C 350.123 217.991 368.792 218.739 386.824 220.162 C 404.855 221.586 422.248 223.685 438.817 226.389 C 455.386 229.093 471.132 232.402 485.868 236.243 C 500.604 240.084 514.33 244.458 526.861 249.292 C 539.393 254.127 550.729 259.423 560.684 265.108 C 570.64 270.794 579.214 276.869 586.222 283.261 C 593.23 289.654 598.672 296.365 602.361 303.322 C 606.051 310.279 607.989 317.482 607.989 324.859" style="stroke-width: 10.3125px; fill: none; stroke: rgb(255, 255, 255); transform-origin: 331.001px 324.859px;" transform="matrix(0.104527, 0.994522, -0.994522, 0.104527, -0.000017, -0.000017)"/>
        <path d="M 613.186 325.294 C 613.186 332.672 611.216 339.875 607.463 346.832 C 603.711 353.789 598.177 360.499 591.049 366.892 C 583.921 373.285 575.201 379.36 565.077 385.045 C 554.953 390.731 543.424 396.026 530.68 400.861 C 517.935 405.696 503.976 410.07 488.989 413.911 C 474.003 417.752 457.99 421.06 441.14 423.764 C 424.289 426.468 406.601 428.567 388.263 429.991 C 369.926 431.414 350.939 432.162 331.492 432.162 C 312.045 432.162 293.058 431.414 274.721 429.991 C 256.383 428.567 238.695 426.468 221.844 423.764 C 204.993 421.06 188.98 417.752 173.994 413.911 C 159.008 410.07 145.048 405.696 132.304 400.861 C 119.56 396.026 108.031 390.731 97.907 385.045 C 87.782 379.36 79.062 373.285 71.935 366.892 C 64.808 360.499 59.273 353.789 55.521 346.832 C 51.769 339.875 49.798 332.672 49.798 325.294 C 49.798 317.917 51.769 310.714 55.521 303.757 C 59.273 296.8 64.808 290.089 71.935 283.696 C 79.062 277.304 87.782 271.229 97.907 265.543 C 108.031 259.858 119.56 254.562 132.304 249.727 C 145.048 244.893 159.008 240.519 173.994 236.678 C 188.98 232.837 204.993 229.528 221.844 226.824 C 238.695 224.121 256.383 222.021 274.721 220.597 M 488.99 236.678 C 503.976 240.519 517.936 244.893 530.68 249.727 C 543.424 254.562 554.953 259.858 565.077 265.543 C 575.202 271.229 583.922 277.304 591.049 283.696 C 598.176 290.089 603.711 296.8 607.463 303.757 C 611.215 310.714 613.186 317.917 613.186 325.294" style="stroke-width: 10.3125px; fill: none; stroke: rgb(255, 255, 255); transform-origin: 331.492px 325.294px;" transform="matrix(0.857167, 0.515039, -0.515039, 0.857167, -0.000001, 0.000003)"/>
        <path d="M 596.205 327.099 C 596.205 334.477 594.335 341.68 590.774 348.637 C 587.213 355.594 581.961 362.304 575.197 368.697 C 568.434 375.09 560.158 381.165 550.55 386.85 C 540.942 392.536 530.001 397.831 517.907 402.666 C 505.813 407.501 492.565 411.875 478.343 415.716 C 464.121 419.557 448.925 422.865 432.934 425.569 C 416.943 428.273 412.981 428.422 402.951 429.368 M 197.54 419.946 C 191.448 418.771 193.635 419.557 179.413 415.716 C 165.191 411.875 151.943 407.501 139.849 402.666 C 127.755 397.831 116.814 392.536 107.206 386.85 C 97.598 381.165 89.322 375.09 82.559 368.697 C 75.795 362.304 70.543 355.594 66.982 348.637 C 63.421 341.68 61.551 334.477 61.551 327.099 C 61.551 319.722 63.421 312.519 66.982 305.562 C 70.543 298.605 75.795 291.894 82.559 285.501 C 89.322 279.109 97.598 273.034 107.206 267.348 C 116.814 261.663 127.755 256.367 139.849 251.532 C 151.943 246.698 165.191 242.324 179.413 238.483 C 193.635 234.642 208.831 231.333 224.822 228.629 C 240.813 225.926 257.6 223.826 275.002 222.402 C 292.405 220.979 310.423 220.231 328.878 220.231 C 347.333 220.231 365.351 220.979 382.754 222.402 C 400.156 223.826 416.942 225.925 432.934 228.629 C 448.925 231.333 464.121 234.642 478.343 238.483 C 492.565 242.324 505.813 246.698 517.907 251.532 C 530.001 256.367 540.942 261.663 550.55 267.348 C 560.158 273.034 568.434 279.109 575.197 285.501 C 581.961 291.894 587.213 298.605 590.774 305.562 C 594.335 312.519 596.205 319.722 596.205 327.099" style="stroke-width: 10.3125px; fill: none; stroke: rgb(255, 255, 255); transform-box: fill-box; transform-origin: 50% 50%;" transform="matrix(0.898795, -0.43837, 0.43837, 0.898795, 0.000006, 0.000003)"/>
      </g>
    </g>
  </g>
</svg>