<?xml version="1.0" encoding="utf-8"?>
<svg viewBox="0 0 186 80" xmlns="http://www.w3.org/2000/svg" xmlns:bx="https://boxy-svg.com">
  <defs>
    <style bx:fonts="Baloo 2">@import url(https://fonts.googleapis.com/css2?family=Baloo+2%3Aital%2Cwght%400%2C400..800&amp;display=swap);</style>
    <bx:grid x="0" y="0" width="190" height="80"/>
    <linearGradient gradientUnits="userSpaceOnUse" x1="18.908" y1="-199.784" x2="18.908" y2="-134.405" id="gradient-7" gradientTransform="matrix(8.425974, 0, 0, 8.425974, 164.42731, 1731.950172)">
      <stop offset="0" style="stop-color: rgb(212, 243, 255);"/>
      <stop offset="1" style="stop-color: rgb(179, 233, 255);"/>
    </linearGradient>
    <radialGradient id="gradient-2" gradientUnits="userSpaceOnUse" cx="152.286" cy="126.898" r="330" gradientTransform="matrix(0.638467, -1.091841, 1.097297, 0.641658, 52.656119, 215.401816)">
      <stop offset="0" style="stop-color: rgb(0, 170, 237);"/>
      <stop offset="1" style="stop-color: rgb(0, 145, 202);"/>
    </radialGradient>
    <linearGradient id="gradient-3" gradientUnits="userSpaceOnUse" x1="330" y1="0" x2="330" y2="660" gradientTransform="matrix(0.980745, -0.195296, 0.195753, 0.983035, -58.734308, 67.665557)">
      <stop offset="0" style="stop-color: rgb(152, 226, 255);"/>
      <stop offset="1" style="stop-color: rgb(78, 193, 239);"/>
    </linearGradient>
  </defs>
  <g transform="matrix(0.341978, 0, 0, 0.341978, 9.524829, 7.722592)">
    <g transform="matrix(0.283555, 0, 0, 0.283555, 3.164114, 1.670931)">
      <title>Logo</title>
      <circle style="paint-order: fill; stroke-width: 10.3125px; fill: url(&quot;#gradient-2&quot;); stroke: url(&quot;#gradient-3&quot;);" cx="329.929" cy="326.968" r="330">
        <title>Main circle</title>
      </circle>
      <path style="fill: none; stroke: url(&quot;#gradient-7&quot;); stroke-width: 7.73439px;" d="M 195.564 127.662 L 197.65566666666666 124.15566666666668 C 199.74733333333333 120.64933333333333 203.93066666666667 113.63666666666666 208.86683333333335 106.435 C 213.803 99.23333333333333 219.492 91.84266666666667 226.29483333333334 84.727 C 233.09766666666667 77.61133333333333 241.01433333333333 70.77066666666667 249.5755 65.28783333333334 C 258.1366666666667 59.805 267.34233333333333 55.68 276.6838333333333 52.844166666666666 C 286.0253333333333 50.00833333333333 295.5026666666667 48.461666666666666 305.2635 48.582 C 315.02433333333335 48.702333333333335 325.0686666666667 50.489666666666665 334.05083333333334 53.34266666666667 C 343.03299999999996 56.19566666666666 350.953 60.11433333333334 359.0001666666667 65.13316666666667 C 367.04733333333337 70.152 375.22166666666664 76.271 383.25333333333333 83.21483333333333 C 391.285 90.15866666666666 399.174 97.92733333333332 405.16900000000004 104.69916666666666 C 411.164 111.471 415.26500000000004 117.246 419.189 123.14133333333332 C 423.113 129.03666666666666 426.85999999999996 135.05233333333334 432.0815 144.76333333333335 C 437.30300000000005 154.47433333333333 443.999 167.88066666666668 449.95616666666666 181.35566666666668 C 455.91333333333336 194.83066666666664 461.13166666666666 208.37433333333334 465.58666666666676 221.93516666666667 C 470.0416666666667 235.496 473.73333333333335 249.07399999999998 476.6088333333334 262.60066666666665 C 479.4843333333333 276.1273333333333 481.5436666666667 289.60266666666666 483.1043333333334 303.93716666666666 C 484.66499999999996 318.27166666666665 485.72700000000003 333.4653333333333 486.23049999999995 347.9028333333333 C 486.734 362.3403333333333 486.67900000000003 376.0216666666667 485.7543333333333 390.47633333333334 C 484.8296666666667 404.931 483.0353333333333 420.15899999999993 480.6789999999999 434.2355 C 478.32266666666663 448.31199999999995 475.40433333333334 461.237 472.06649999999996 473.1308333333333 C 468.72866666666664 485.0246666666667 464.97133333333335 495.88733333333334 460.26883333333336 506.939 C 455.5663333333334 517.9906666666667 449.9186666666667 529.2313333333333 444.1643333333334 538.65 C 438.41 548.0686666666667 432.549 555.6653333333333 426.18783333333334 562.4886666666666 C 419.82666666666665 569.312 412.9653333333333 575.362 405.1948333333333 580.759 C 397.4243333333333 586.1560000000001 388.74466666666666 590.9 379.32933333333335 594.2516666666667 C 369.914 597.6033333333334 359.763 599.5626666666667 348.201 599.4595 C 336.639 599.3563333333333 323.666 597.1906666666667 311.4595 592.6875 C 299.253 588.1843333333333 287.813 581.3436666666666 277.34066666666666 573.3343333333333 C 266.86833333333334 565.325 257.3636666666667 556.147 248.87816666666666 546.4703333333333 C 240.39266666666666 536.7936666666667 232.92633333333333 526.6183333333333 226.7456666666667 517.6635 C 220.56500000000003 508.70866666666666 215.67 500.97433333333333 210.16816666666668 490.45566666666673 C 204.66633333333334 479.93700000000007 198.55766666666668 466.634 192.96316666666667 453.9840000000001 C 187.36866666666666 441.334 182.28833333333333 429.337 179.74816666666666 423.3385 L 177.208 417.34 M 222.304 510.05 L 217.5533333333333 509.8093333333333 C 212.80266666666668 509.56866666666673 203.30133333333333 509.08733333333333 192.70016666666666 507.55766666666665 C 182.09900000000002 506.028 170.398 503.45 160.15266666666665 500.4936666666667 C 149.90733333333333 497.5373333333334 141.11766666666668 494.20266666666663 133.54999999999998 490.6963333333333 C 125.98233333333333 487.19 119.63666666666666 483.512 112.39383333333332 477.634 C 105.151 471.75600000000003 97.01100000000001 463.67800000000005 90.38516666666665 454.792 C 83.75933333333333 445.906 78.64766666666667 436.212 75.51083333333334 424.64466666666664 C 72.37400000000001 413.07733333333334 71.212 399.6366666666667 71.62783333333333 388.06950000000006 C 72.04366666666667 376.50233333333335 74.03733333333334 366.8086666666666 77.02283333333334 356.96033333333327 C 80.00833333333334 347.112 83.98566666666666 337.109 88.94783333333334 327.2778333333333 C 93.91000000000001 317.44666666666666 99.85700000000001 307.7873333333333 107.54333333333334 297.37166666666667 C 115.22966666666666 286.95599999999996 124.65533333333333 275.78400000000005 134.12733333333333 266.0213333333333 C 143.59933333333333 256.25866666666667 153.11766666666665 247.90533333333335 163.5985 239.41466666666665 C 174.07933333333335 230.92399999999998 185.52266666666665 222.29600000000002 197.04683333333332 214.2351666666667 C 208.571 206.17433333333335 220.17600000000002 198.68066666666667 231.7501666666667 192.23533333333333 C 243.32433333333333 185.79 254.86766666666668 180.39300000000003 267.5555 175.082 C 280.24333333333334 169.771 294.0756666666667 164.54600000000002 307.87033333333335 160.0085 C 321.665 155.471 335.42199999999997 151.62099999999998 348.7749999999999 148.88816666666665 C 362.128 146.15533333333335 375.077 144.53966666666668 388.06566666666663 143.52566666666667 C 401.0543333333333 142.51166666666668 414.0826666666667 142.09933333333333 425.80283333333335 142.4775 C 437.52299999999997 142.85566666666668 447.93499999999995 144.02433333333335 459.59499999999997 146.18983333333335 C 471.25499999999994 148.35533333333333 484.163 151.51766666666666 497.04333333333335 156.588 C 509.92366666666675 161.65833333333333 522.7763333333334 168.63666666666668 533.534 176.57733333333337 C 544.2916666666666 184.51800000000003 552.9543333333332 193.42100000000002 558.6623333333333 201.43033333333335 C 564.3703333333333 209.43966666666665 567.1236666666666 216.55533333333332 569.3786666666666 225.42416666666668 C 571.6336666666666 234.293 573.3903333333334 244.915 573.4058333333334 255.89783333333332 C 573.4213333333333 266.8806666666667 571.6956666666666 278.22433333333333 568.7221666666667 289.53366666666665 C 565.7486666666667 300.843 561.5273333333333 312.118 556.4760000000001 322.0868333333333 C 551.4246666666667 332.05566666666664 545.5433333333334 340.7183333333333 538.933 350.03399999999993 C 532.3226666666667 359.3496666666667 524.9833333333333 369.3183333333333 519.4093333333334 376.24483333333336 C 513.8353333333333 383.1713333333333 510.02666666666664 387.05566666666664 504.34116666666665 393.0713333333333 C 498.6556666666667 399.087 491.0933333333333 407.234 487.31216666666666 411.30749999999995 L 483.531 415.381 M 336.144 152.824 L 330.5701666666667 150.9506666666667 C 324.9963333333333 149.07733333333334 313.8486666666667 145.33066666666667 302.0323333333333 141.77283333333335 C 290.216 138.215 277.731 134.846 265.2235 132.52566666666667 C 252.71599999999998 130.20533333333333 240.186 128.93366666666668 227.39149999999998 128.19466666666668 C 214.597 127.45566666666667 201.538 127.24933333333335 189.6941666666667 127.79933333333334 C 177.85033333333334 128.34933333333333 167.22166666666666 129.65566666666666 157.33366666666666 131.66666666666666 C 147.44566666666665 133.67766666666668 138.29833333333332 136.39333333333335 129.4295 140.34633333333332 C 120.56066666666668 144.29933333333335 111.97033333333333 149.4896666666667 104.04516666666667 156.17550000000003 C 96.12 162.86133333333333 88.86 171.04266666666663 83.20883333333333 179.94583333333333 C 77.55766666666666 188.84900000000002 73.51533333333333 198.47400000000002 70.59349999999999 207.6865 C 67.67166666666667 216.899 65.87033333333333 225.69899999999998 65.92866666666667 235.68500000000003 C 65.98700000000001 245.67099999999996 67.90499999999999 256.843 71.181 268.0321666666667 C 74.457 279.22133333333335 79.091 290.42766666666665 84.61166666666666 301.75416666666666 C 90.13233333333334 313.0806666666667 96.53966666666668 324.52733333333333 103.858 335.9398333333333 C 111.17633333333333 347.3523333333333 119.40566666666666 358.73066666666665 128.9035 369.86833333333334 C 138.40133333333333 381.00600000000003 149.16766666666666 391.903 160.221 402.0608333333333 C 171.27433333333332 412.21866666666665 182.6146666666667 421.63733333333334 195.30416666666667 430.9873333333333 C 207.99366666666666 440.33733333333333 222.03233333333333 449.6186666666667 235.69983333333334 457.97183333333334 C 249.36733333333333 466.325 262.66366666666664 473.75 277.3178333333333 480.59049999999996 C 291.972 487.43100000000004 307.984 493.68699999999995 323.20183333333335 499.1698333333334 C 338.41966666666667 504.6526666666667 352.8433333333333 509.3623333333333 368.5371666666667 513.0061666666667 C 384.231 516.65 401.195 519.2280000000001 417.92366666666663 520.706 C 434.6523333333333 522.1840000000001 451.1456666666666 522.562 466.92900000000003 521.4620000000001 C 482.7123333333334 520.3620000000001 497.78566666666666 517.784 511.0166666666667 513.5043333333334 C 524.2476666666666 509.2246666666667 535.6363333333334 503.24333333333334 545.1221666666667 495.4918333333333 C 554.6080000000001 487.74033333333335 562.1909999999999 478.21866666666665 568.0123333333333 466.54833333333335 C 573.8336666666667 454.878 577.8933333333333 441.059 579.9454999999999 427.61833333333334 C 581.9976666666666 414.17766666666665 582.0423333333333 401.11533333333335 580.3476666666667 389.0496666666666 C 578.6529999999999 376.984 575.2189999999999 365.91499999999996 570.7038333333334 355.3618333333333 C 566.1886666666666 344.8086666666666 560.5923333333334 334.7713333333333 557.7941666666667 329.75266666666664 L 554.996 324.734" bx:d="M 195.564 127.662 U 208.114 106.624 U 225.181 84.452 U 248.931 63.93 U 276.548 51.555 U 304.98 46.915 U 335.113 52.277 U 358.873 64.033 U 383.396 82.39 U 407.063 105.696 U 419.366 123.021 U 430.607 141.068 U 450.695 181.287 U 466.35 221.918 U 477.425 262.652 U 483.603 303.078 U 486.789 348.659 U 486.624 389.703 U 481.241 435.387 U 472.486 474.162 U 461.214 506.75 U 444.271 540.472 U 426.688 563.262 U 406.104 581.412 U 380.065 595.644 U 349.612 601.522 U 310.693 595.025 U 276.373 574.503 U 247.859 546.969 U 225.46 516.443 U 210.775 493.24 U 192.449 453.331 U 177.208 417.34 M 222.304 510.05 U 193.8 508.606 U 158.697 500.872 U 132.328 490.868 U 113.291 479.834 U 88.871 455.6 U 73.536 426.518 U 70.05 386.196 U 76.031 357.115 U 87.963 327.106 U 105.804 298.128 U 134.081 264.612 U 162.636 239.552 U 196.966 213.668 U 231.781 191.187 U 266.411 174.996 U 307.908 159.321 U 349.179 147.771 U 388.026 142.924 U 427.111 141.687 U 458.347 145.193 U 497.071 154.68 U 535.629 175.615 U 561.617 202.324 U 569.877 223.671 U 575.147 255.537 U 569.97 289.568 U 557.306 323.393 U 539.662 349.381 U 517.644 379.287 U 506.218 390.94 U 483.531 415.381 M 336.144 152.824 U 302.701 141.584 U 265.246 131.477 U 227.656 127.662 U 188.479 127.043 U 156.593 130.962 U 129.151 139.109 U 103.38 154.68 U 81.6 179.224 U 69.473 208.099 U 64.069 234.499 U 69.823 268.015 U 83.725 301.634 U 102.947 335.974 U 127.635 370.109 U 159.934 402.8 U 193.955 431.056 U 236.071 458.9 U 275.96 481.175 U 323.996 499.943 U 367.267 514.072 U 418.159 521.806 U 467.639 522.94 U 512.859 515.206 U 547.025 497.262 U 569.774 468.697 U 581.953 427.24 U 582.087 388.053 U 571.785 354.846 U 554.996 324.734 1@22861cfc"/>
      <text style="fill: rgb(255, 255, 255); font-family: &quot;Baloo 2&quot;; font-size: 288.8px; font-weight: 300; line-height: 191.825px; white-space: pre;" x="170.246" y="388.103"><title>Text</title>es</text>
    </g>
    <g transform="matrix(1, 0, 0, 1, -3.848826, -4.564161)" style="">
      <title>Text</title>
      <text style="font-family: &quot;Baloo 2&quot;; font-size: 81.9px; font-weight: 300; line-height: 191.825px; white-space: pre;" x="216.363" y="77.257"><title>easy</title>easy</text>
      <text style="font-family: &quot;Baloo 2&quot;; font-size: 81.9px; font-weight: 600; line-height: 191.825px; white-space: pre;" x="216.468" y="159.731"><title>diffraction</title>science</text>
    </g>
  </g>
</svg>