<?xml version="1.0" encoding="utf-8"?>
<svg viewBox="0 0 170 65" xmlns="http://www.w3.org/2000/svg" xmlns:bx="https://boxy-svg.com" height="65px">
  <defs>
    <bx:grid x="0" y="0" width="190" height="80"/>
    <radialGradient id="gradient-6" gradientUnits="userSpaceOnUse" cx="152.286" cy="126.898" r="330" gradientTransform="matrix(0.638467, -1.091841, 1.097297, 0.641658, 52.656119, 215.401816)">
      <stop offset="0" style="stop-color: rgb(0, 170, 237);"/>
      <stop offset="1" style="stop-color: rgb(0, 145, 202);"/>
    </radialGradient>
    <linearGradient id="gradient-7" gradientUnits="userSpaceOnUse" x1="330" y1="0" x2="330" y2="660" gradientTransform="matrix(0.980745, -0.195296, 0.195753, 0.983035, -58.734308, 67.665557)">
      <stop offset="0" style="stop-color: rgb(152, 226, 255);"/>
      <stop offset="1" style="stop-color: rgb(78, 193, 239);"/>
    </linearGradient>
    <linearGradient gradientUnits="userSpaceOnUse" x1="330.905" y1="39.833" x2="330.905" y2="619.809" id="gradient-14" gradientTransform="matrix(0.864946, -0.286448, 0.284727, 0.859748, 77.343182, 41.39827)">
      <stop offset="0" style="stop-color: rgb(212, 243, 255);"/>
      <stop offset="1" style="stop-color: rgb(179, 233, 255);"/>
    </linearGradient>
  </defs>
  <g transform="matrix(1, 0, 0, 1, -10.099999, -7.500001)">
    <g transform="matrix(0.09697, 0, 0, 0.09697, 10.606886, 8.294015)">
      <title>Logo</title>
      <circle style="paint-order: fill; stroke-width: 10.3125px; fill: url(&quot;#gradient-6&quot;); stroke: url(&quot;#gradient-7&quot;);" cx="329.929" cy="326.968" r="330">
        <title>Main circle</title>
      </circle>
      <g transform="matrix(1, 0, 0, 1, -128.261932, 96.536263)">
        <path style="stroke-width: 10.4762px; fill: url(&quot;#gradient-14&quot;); stroke: rgb(78, 194, 239);" d="M 427.78 -20.675 C 427.78 -20.675 486.102 -28.502 539.938 -8.636 C 587.981 9.093 621.081 37.184 621.081 37.184 C 621.081 37.184 612.73 79.188 601.386 115.158 C 591.155 147.6 576.814 182.2 576.814 182.2 C 576.814 182.2 556.669 138.712 514.104 76.797 C 478.741 25.358 427.78 -20.675 427.78 -20.675 Z M 661.192 80.214 C 661.192 80.214 697.131 126.809 706.844 183.365 C 715.512 233.836 707.735 276.547 707.735 276.547 C 707.735 276.547 667.183 290.317 630.36 298.478 C 597.148 305.838 560.013 310.719 560.013 310.719 C 560.013 310.719 587.603 271.529 619.94 203.709 C 646.806 147.364 661.192 80.214 661.192 80.214 Z M 688.795 331.078 C 688.795 331.078 666.412 385.5 622.29 422.191 C 582.915 454.932 542.037 469.552 542.037 469.552 C 542.037 469.552 509.836 441.318 484.357 413.509 C 461.377 388.428 438.583 358.708 438.583 358.708 C 438.583 358.708 486.317 363.006 561.22 357.101 C 623.449 352.195 688.795 331.078 688.795 331.078 Z M 226.536 131.707 C 226.536 131.707 248.919 77.286 293.041 40.595 C 332.416 7.853 373.294 -6.767 373.294 -6.767 C 373.294 -6.767 405.495 21.468 430.974 49.277 C 453.954 74.358 476.748 104.078 476.748 104.078 C 476.748 104.078 429.014 99.78 354.111 105.685 C 291.882 110.59 226.536 131.707 226.536 131.707 Z M 256.202 380.657 C 256.202 380.657 220.262 334.062 210.549 277.506 C 201.881 227.035 209.658 184.324 209.658 184.324 C 209.658 184.324 250.21 170.554 287.033 162.393 C 320.244 155.032 357.379 150.152 357.379 150.152 C 357.379 150.152 329.79 189.342 297.453 257.162 C 270.587 313.507 256.202 380.657 256.202 380.657 Z M 485 482.134 C 485 482.134 426.678 489.961 372.842 470.095 C 324.799 452.366 291.699 424.275 291.699 424.275 C 291.699 424.275 300.05 382.271 311.394 346.301 C 321.625 313.859 335.966 279.259 335.966 279.259 C 335.966 279.259 356.111 322.747 398.676 384.662 C 434.039 436.101 485 482.134 485 482.134 Z"/>
      </g>
    </g>
    <g transform="matrix(0.341978, 0, 0, 0.341978, 8.208615, 6.161749)" style="">
      <title>Text</title>
      <path d="M 224.881 62.515 L 224.553 57.355 L 249.287 53.997 Q 248.959 49.493 246.175 46.585 Q 243.39 43.678 238.476 43.678 Q 233.398 43.678 230.081 47.323 Q 226.764 50.967 226.764 57.765 L 226.764 59.567 Q 227.338 66.119 231.064 69.517 Q 234.791 72.916 241.261 72.916 Q 244.7 72.916 247.485 71.77 Q 250.27 70.623 251.908 69.313 Q 252.809 69.886 253.341 70.664 Q 253.873 71.442 253.873 72.425 Q 253.873 73.981 252.112 75.332 Q 250.352 76.684 247.444 77.503 Q 244.537 78.322 240.933 78.322 Q 234.627 78.322 229.999 76.029 Q 225.372 73.735 222.874 69.19 Q 220.376 64.644 220.376 58.092 Q 220.376 53.424 221.727 49.78 Q 223.079 46.135 225.495 43.596 Q 227.911 41.057 231.269 39.706 Q 234.627 38.355 238.558 38.355 Q 243.554 38.355 247.362 40.484 Q 251.171 42.613 253.341 46.422 Q 255.511 50.23 255.511 55.144 Q 255.511 56.946 254.692 57.724 Q 253.873 58.502 252.399 58.666 Z M 278.524 72.998 Q 281.963 72.998 284.216 72.302 Q 286.468 71.606 287.451 70.951 L 287.451 59.075 L 277.295 60.14 Q 273.036 60.468 270.989 62.024 Q 268.941 63.58 268.941 66.528 Q 268.941 69.558 271.357 71.278 Q 273.773 72.998 278.524 72.998 Z M 278.442 38.355 Q 285.567 38.355 289.744 41.549 Q 293.921 44.743 293.921 51.622 L 293.921 71.033 Q 293.921 72.834 293.225 73.776 Q 292.529 74.718 291.136 75.537 Q 289.171 76.602 285.895 77.503 Q 282.619 78.404 278.524 78.404 Q 270.825 78.404 266.607 75.373 Q 262.389 72.343 262.389 66.61 Q 262.389 61.287 265.952 58.461 Q 269.515 55.635 275.821 55.062 L 287.451 53.916 L 287.451 51.622 Q 287.451 47.527 284.994 45.644 Q 282.537 43.76 278.36 43.76 Q 275.002 43.76 271.931 44.743 Q 268.859 45.726 266.484 46.954 Q 265.829 46.381 265.297 45.603 Q 264.764 44.825 264.764 44.006 Q 264.764 41.876 267.14 40.73 Q 269.351 39.583 272.258 38.969 Q 275.166 38.355 278.442 38.355 Z M 332.575 67.183 Q 332.575 72.425 328.726 75.373 Q 324.876 78.322 317.587 78.322 Q 311.363 78.322 307.432 76.397 Q 303.5 74.472 303.5 72.179 Q 303.5 71.196 304.033 70.255 Q 304.565 69.313 305.63 68.739 Q 307.841 70.296 310.79 71.606 Q 313.738 72.916 317.505 72.916 Q 326.023 72.916 326.023 67.183 Q 326.023 64.808 324.59 63.293 Q 323.156 61.778 320.372 61.123 L 313.574 59.321 Q 308.578 58.092 306.285 55.513 Q 303.992 52.933 303.992 49.083 Q 303.992 44.743 307.514 41.549 Q 311.035 38.355 318.242 38.355 Q 322.092 38.355 324.958 39.133 Q 327.825 39.911 329.422 41.18 Q 331.019 42.45 331.019 43.924 Q 331.019 44.988 330.487 45.807 Q 329.954 46.626 329.053 47.036 Q 328.07 46.381 326.555 45.603 Q 325.04 44.825 322.993 44.292 Q 320.945 43.76 318.488 43.76 Q 314.885 43.76 312.673 45.152 Q 310.462 46.545 310.462 49.083 Q 310.462 50.885 311.731 52.237 Q 313.001 53.588 315.785 54.243 L 321.437 55.635 Q 327.006 56.946 329.79 59.771 Q 332.575 62.597 332.575 67.183 Z M 348.954 68.821 Q 347.561 66.201 345.596 61.737 Q 343.63 57.273 341.542 51.745 Q 339.453 46.217 337.57 40.484 Q 338.143 39.665 339.085 39.174 Q 340.027 38.682 341.091 38.682 Q 342.484 38.682 343.384 39.419 Q 344.285 40.156 344.859 41.876 Q 347.316 48.756 350.018 55.554 Q 352.721 62.351 355.997 69.64 L 356.325 69.64 Q 358.045 66.201 359.928 61.041 Q 361.812 55.881 363.532 50.148 Q 365.252 44.415 366.398 39.337 Q 366.972 39.092 367.668 38.887 Q 368.364 38.682 369.183 38.682 Q 370.575 38.682 371.476 39.378 Q 372.377 40.074 372.377 41.467 Q 372.377 42.777 371.64 45.848 Q 370.903 48.92 369.633 52.974 Q 368.364 57.028 366.685 61.573 Q 365.006 66.119 363.081 70.5 Q 361.157 74.882 359.191 78.404 Q 355.424 85.365 352.312 89.092 Q 349.199 92.818 346.579 92.818 Q 344.695 92.818 343.671 91.835 Q 342.647 90.852 342.402 89.542 Q 344.203 87.986 346.456 85.406 Q 348.708 82.826 350.796 79.837 Q 352.885 76.848 354.195 74.145 Q 352.803 73.735 351.615 72.671 Q 350.428 71.606 348.954 68.821 Z" style="line-height: 191.825px; text-wrap-mode: nowrap; fill: rgb(255, 255, 255);"/>
      <path d="M 221.218 109.444 Q 221.218 107.069 222.897 105.431 Q 224.576 103.793 227.115 103.793 Q 229.736 103.793 231.333 105.431 Q 232.93 107.069 232.93 109.444 Q 232.93 111.738 231.333 113.417 Q 229.736 115.095 227.115 115.095 Q 224.576 115.095 222.897 113.417 Q 221.218 111.738 221.218 109.444 Z M 222.037 138.109 L 232.193 138.109 L 232.193 159.567 Q 231.538 159.813 230.309 160.018 Q 229.081 160.222 227.606 160.222 Q 224.822 160.222 223.43 159.199 Q 222.037 158.175 222.037 155.554 Z M 232.193 143.269 L 222.037 143.269 L 222.037 121.32 Q 222.692 121.074 223.962 120.869 Q 225.231 120.665 226.706 120.665 Q 229.572 120.665 230.882 121.688 Q 232.193 122.712 232.193 125.415 Z M 276.882 132.95 L 276.882 142.286 L 266.809 142.286 L 266.809 134.096 Q 266.809 130.902 264.884 129.387 Q 262.959 127.872 260.011 127.872 Q 257.882 127.872 256.121 128.486 Q 254.36 129.1 253.131 129.919 L 253.131 142.286 L 243.058 142.286 L 243.058 129.264 Q 243.058 127.299 243.877 126.029 Q 244.696 124.76 246.334 123.695 Q 248.873 121.975 252.599 120.91 Q 256.326 119.846 260.339 119.846 Q 264.352 119.846 267.71 121.074 Q 271.068 122.303 273.197 124.678 Q 273.77 125.169 274.262 125.661 Q 274.753 126.152 275.081 126.807 Q 275.818 128.036 276.35 129.633 Q 276.882 131.23 276.882 132.95 Z M 300.552 133.769 L 300.552 142.286 L 290.478 142.286 L 290.478 134.096 Q 290.478 130.902 288.676 129.387 Q 286.874 127.872 283.844 127.872 Q 281.633 127.872 279.544 128.773 Q 277.456 129.674 275.982 131.148 L 270.904 125.005 Q 273.443 122.876 276.882 121.361 Q 280.322 119.846 285.072 119.846 Q 289.413 119.846 292.935 121.238 Q 296.457 122.63 298.504 125.742 Q 300.552 128.855 300.552 133.769 Z M 243.058 138.355 L 253.131 138.355 L 253.131 159.567 Q 252.476 159.813 251.248 160.018 Q 250.019 160.222 248.545 160.222 Q 245.76 160.222 244.409 159.199 Q 243.058 158.175 243.058 155.554 Z M 266.809 138.355 L 276.882 138.355 L 276.882 159.567 Q 276.227 159.813 274.958 160.018 Q 273.688 160.222 272.296 160.222 Q 269.43 160.222 268.119 159.199 Q 266.809 158.175 266.809 155.554 Z M 290.478 138.355 L 300.552 138.355 L 300.552 159.567 Q 299.978 159.813 298.709 160.018 Q 297.439 160.222 296.047 160.222 Q 293.181 160.222 291.829 159.199 Q 290.478 158.175 290.478 155.554 Z M 326.336 153.261 Q 328.793 153.261 330.759 152.769 Q 332.724 152.278 333.625 151.705 L 333.625 142.368 L 325.517 143.187 Q 322.159 143.433 320.399 144.62 Q 318.638 145.808 318.638 148.101 Q 318.638 150.476 320.521 151.869 Q 322.405 153.261 326.336 153.261 Z M 325.927 119.846 Q 333.953 119.846 338.703 123.245 Q 343.453 126.643 343.453 133.932 L 343.453 152.769 Q 343.453 154.735 342.512 155.882 Q 341.57 157.028 340.095 157.929 Q 337.802 159.24 334.281 160.1 Q 330.759 160.959 326.336 160.959 Q 318.146 160.959 313.478 157.806 Q 308.81 154.653 308.81 148.429 Q 308.81 142.941 312.29 140.034 Q 315.771 137.127 322.405 136.471 L 333.543 135.325 L 333.543 133.851 Q 333.543 130.575 331.291 129.1 Q 329.039 127.626 324.944 127.626 Q 321.75 127.626 318.72 128.445 Q 315.689 129.264 313.314 130.411 Q 312.495 129.756 311.84 128.609 Q 311.185 127.462 311.185 126.234 Q 311.185 123.285 314.461 121.893 Q 316.754 120.828 319.825 120.337 Q 322.896 119.846 325.927 119.846 Z M 369.793 158.339 Q 364.961 158.339 360.866 156.496 Q 356.771 154.653 354.314 150.394 Q 351.857 146.136 351.857 139.174 Q 351.857 132.786 354.355 128.486 Q 356.853 124.186 361.399 122.016 Q 365.944 119.846 371.841 119.846 Q 376.018 119.846 379.58 120.91 Q 383.143 121.975 385.273 123.367 Q 386.665 124.268 387.525 125.538 Q 388.385 126.807 388.385 128.609 L 388.385 154.162 L 378.557 154.162 L 378.557 129.51 Q 377.492 128.855 375.936 128.363 Q 374.38 127.872 372.087 127.872 Q 367.582 127.872 364.757 130.656 Q 361.931 133.441 361.931 139.174 Q 361.931 145.48 364.675 148.019 Q 367.418 150.558 371.431 150.558 Q 374.544 150.558 376.468 149.493 Q 378.393 148.429 379.703 147.2 L 380.031 155.39 Q 378.557 156.537 375.977 157.438 Q 373.397 158.339 369.793 158.339 Z M 378.721 159.977 L 378.721 151.95 L 388.385 151.95 L 388.385 160.304 Q 388.385 165.873 385.846 169.354 Q 383.307 172.835 378.925 174.473 Q 374.544 176.111 369.138 176.111 Q 364.879 176.111 361.726 175.292 Q 358.573 174.473 357.099 173.572 Q 354.396 171.934 354.396 169.068 Q 354.396 167.593 355.051 166.447 Q 355.707 165.3 356.608 164.727 Q 358.655 166.037 361.726 167.02 Q 364.798 168.003 368.237 168.003 Q 373.151 168.003 375.936 166.078 Q 378.721 164.154 378.721 159.977 Z M 398.328 109.444 Q 398.328 107.069 400.007 105.431 Q 401.686 103.793 404.225 103.793 Q 406.845 103.793 408.442 105.431 Q 410.04 107.069 410.04 109.444 Q 410.04 111.738 408.442 113.417 Q 406.845 115.095 404.225 115.095 Q 401.686 115.095 400.007 113.417 Q 398.328 111.738 398.328 109.444 Z M 399.147 138.109 L 409.302 138.109 L 409.302 159.567 Q 408.647 159.813 407.419 160.018 Q 406.19 160.222 404.716 160.222 Q 401.931 160.222 400.539 159.199 Q 399.147 158.175 399.147 155.554 Z M 409.302 143.269 L 399.147 143.269 L 399.147 121.32 Q 399.802 121.074 401.071 120.869 Q 402.341 120.665 403.815 120.665 Q 406.682 120.665 407.992 121.688 Q 409.302 122.712 409.302 125.415 Z M 455.961 134.424 L 455.961 142.368 L 445.887 142.368 L 445.887 134.833 Q 445.887 131.23 443.84 129.551 Q 441.792 127.872 438.353 127.872 Q 435.814 127.872 433.807 128.486 Q 431.801 129.1 430.245 129.919 L 430.245 142.368 L 420.171 142.368 L 420.171 129.264 Q 420.171 127.299 420.99 126.029 Q 421.809 124.76 423.447 123.695 Q 425.904 122.057 429.794 120.951 Q 433.684 119.846 438.435 119.846 Q 446.706 119.846 451.334 123.531 Q 455.961 127.217 455.961 134.424 Z M 420.171 138.355 L 430.245 138.355 L 430.245 159.567 Q 429.589 159.813 428.361 160.018 Q 427.132 160.222 425.658 160.222 Q 422.874 160.222 421.522 159.199 Q 420.171 158.175 420.171 155.554 Z M 445.887 138.355 L 455.961 138.355 L 455.961 159.567 Q 455.388 159.813 454.118 160.018 Q 452.849 160.222 451.457 160.222 Q 448.59 160.222 447.239 159.199 Q 445.887 158.175 445.887 155.554 Z M 482.564 158.339 Q 477.732 158.339 473.637 156.496 Q 469.542 154.653 467.085 150.394 Q 464.628 146.136 464.628 139.174 Q 464.628 132.786 467.126 128.486 Q 469.624 124.186 474.17 122.016 Q 478.715 119.846 484.612 119.846 Q 488.789 119.846 492.351 120.91 Q 495.914 121.975 498.043 123.367 Q 499.436 124.268 500.296 125.538 Q 501.156 126.807 501.156 128.609 L 501.156 154.162 L 491.328 154.162 L 491.328 129.51 Q 490.263 128.855 488.707 128.363 Q 487.151 127.872 484.857 127.872 Q 480.353 127.872 477.527 130.656 Q 474.702 133.441 474.702 139.174 Q 474.702 145.48 477.446 148.019 Q 480.189 150.558 484.202 150.558 Q 487.314 150.558 489.239 149.493 Q 491.164 148.429 492.474 147.2 L 492.802 155.39 Q 491.328 156.537 488.748 157.438 Q 486.168 158.339 482.564 158.339 Z M 491.491 159.977 L 491.491 151.95 L 501.156 151.95 L 501.156 160.304 Q 501.156 165.873 498.617 169.354 Q 496.078 172.835 491.696 174.473 Q 487.314 176.111 481.909 176.111 Q 477.65 176.111 474.497 175.292 Q 471.344 174.473 469.87 173.572 Q 467.167 171.934 467.167 169.068 Q 467.167 167.593 467.822 166.447 Q 468.477 165.3 469.378 164.727 Q 471.426 166.037 474.497 167.02 Q 477.568 168.003 481.008 168.003 Q 485.922 168.003 488.707 166.078 Q 491.491 164.154 491.491 159.977 Z" style="line-height: 191.825px; text-wrap-mode: nowrap; fill: rgb(255, 255, 255);"/>
    </g>
  </g>
</svg>