<?xml version="1.0" encoding="utf-8"?>
<svg viewBox="0 0 164.5 65" xmlns="http://www.w3.org/2000/svg" xmlns:bx="https://boxy-svg.com" height="32px" width="81px">
  <defs>
    <bx:grid x="0" y="0" width="190" height="80"/>
    <linearGradient gradientUnits="userSpaceOnUse" x1="18.908" y1="-199.784" x2="18.908" y2="-134.405" id="gradient-7" gradientTransform="matrix(8.425974, 0, 0, 8.425974, 164.42731, 1731.950172)">
      <stop offset="0" style="stop-color: rgb(212, 243, 255);"/>
      <stop offset="1" style="stop-color: rgb(179, 233, 255);"/>
    </linearGradient>
    <radialGradient id="gradient-2" gradientUnits="userSpaceOnUse" cx="152.286" cy="126.898" r="330" gradientTransform="matrix(0.638467, -1.091841, 1.097297, 0.641658, 52.656119, 215.401816)">
      <stop offset="0" style="stop-color: rgb(0, 170, 237);"/>
      <stop offset="1" style="stop-color: rgb(0, 145, 202);"/>
    </radialGradient>
    <linearGradient id="gradient-3" gradientUnits="userSpaceOnUse" x1="330" y1="0" x2="330" y2="660" gradientTransform="matrix(0.980745, -0.195296, 0.195753, 0.983035, -58.734308, 67.665557)">
      <stop offset="0" style="stop-color: rgb(152, 226, 255);"/>
      <stop offset="1" style="stop-color: rgb(78, 193, 239);"/>
    </linearGradient>
  </defs>
  <g transform="matrix(0.341978, 0, 0, 0.341978, -0.575171, 0.222591)">
    <g transform="matrix(0.283555, 0, 0, 0.283555, 3.164114, 1.670931)">
      <title>Logo</title>
      <circle style="paint-order: fill; stroke-width: 10.3125px; fill: url(&quot;#gradient-2&quot;); stroke: url(&quot;#gradient-3&quot;);" cx="329.929" cy="326.968" r="330">
        <title>Main circle</title>
      </circle>
      <path style="fill: none; stroke: url(&quot;#gradient-7&quot;); stroke-width: 12.8906px;" d="M 195.564 127.662 L 197.65566666666666 124.15566666666668 C 199.74733333333333 120.64933333333333 203.93066666666667 113.63666666666666 208.86683333333335 106.435 C 213.803 99.23333333333333 219.492 91.84266666666667 226.29483333333334 84.727 C 233.09766666666667 77.61133333333333 241.01433333333333 70.77066666666667 249.5755 65.28783333333334 C 258.1366666666667 59.805 267.34233333333333 55.68 276.6838333333333 52.844166666666666 C 286.0253333333333 50.00833333333333 295.5026666666667 48.461666666666666 305.2635 48.582 C 315.02433333333335 48.702333333333335 325.0686666666667 50.489666666666665 334.05083333333334 53.34266666666667 C 343.03299999999996 56.19566666666666 350.953 60.11433333333334 359.0001666666667 65.13316666666667 C 367.04733333333337 70.152 375.22166666666664 76.271 383.25333333333333 83.21483333333333 C 391.285 90.15866666666666 399.174 97.92733333333332 405.16900000000004 104.69916666666666 C 411.164 111.471 415.26500000000004 117.246 419.189 123.14133333333332 C 423.113 129.03666666666666 426.85999999999996 135.05233333333334 432.0815 144.76333333333335 C 437.30300000000005 154.47433333333333 443.999 167.88066666666668 449.95616666666666 181.35566666666668 C 455.91333333333336 194.83066666666664 461.13166666666666 208.37433333333334 465.58666666666676 221.93516666666667 C 470.0416666666667 235.496 473.73333333333335 249.07399999999998 476.6088333333334 262.60066666666665 C 479.4843333333333 276.1273333333333 481.5436666666667 289.60266666666666 483.1043333333334 303.93716666666666 C 484.66499999999996 318.27166666666665 485.72700000000003 333.4653333333333 486.23049999999995 347.9028333333333 C 486.734 362.3403333333333 486.67900000000003 376.0216666666667 485.7543333333333 390.47633333333334 C 484.8296666666667 404.931 483.0353333333333 420.15899999999993 480.6789999999999 434.2355 C 478.32266666666663 448.31199999999995 475.40433333333334 461.237 472.06649999999996 473.1308333333333 C 468.72866666666664 485.0246666666667 464.97133333333335 495.88733333333334 460.26883333333336 506.939 C 455.5663333333334 517.9906666666667 449.9186666666667 529.2313333333333 444.1643333333334 538.65 C 438.41 548.0686666666667 432.549 555.6653333333333 426.18783333333334 562.4886666666666 C 419.82666666666665 569.312 412.9653333333333 575.362 405.1948333333333 580.759 C 397.4243333333333 586.1560000000001 388.74466666666666 590.9 379.32933333333335 594.2516666666667 C 369.914 597.6033333333334 359.763 599.5626666666667 348.201 599.4595 C 336.639 599.3563333333333 323.666 597.1906666666667 311.4595 592.6875 C 299.253 588.1843333333333 287.813 581.3436666666666 277.34066666666666 573.3343333333333 C 266.86833333333334 565.325 257.3636666666667 556.147 248.87816666666666 546.4703333333333 C 240.39266666666666 536.7936666666667 232.92633333333333 526.6183333333333 226.7456666666667 517.6635 C 220.56500000000003 508.70866666666666 215.67 500.97433333333333 210.16816666666668 490.45566666666673 C 204.66633333333334 479.93700000000007 198.55766666666668 466.634 192.96316666666667 453.9840000000001 C 187.36866666666666 441.334 182.28833333333333 429.337 179.74816666666666 423.3385 L 177.208 417.34 M 222.304 510.05 L 217.5533333333333 509.8093333333333 C 212.80266666666668 509.56866666666673 203.30133333333333 509.08733333333333 192.70016666666666 507.55766666666665 C 182.09900000000002 506.028 170.398 503.45 160.15266666666665 500.4936666666667 C 149.90733333333333 497.5373333333334 141.11766666666668 494.20266666666663 133.54999999999998 490.6963333333333 C 125.98233333333333 487.19 119.63666666666666 483.512 112.39383333333332 477.634 C 105.151 471.75600000000003 97.01100000000001 463.67800000000005 90.38516666666665 454.792 C 83.75933333333333 445.906 78.64766666666667 436.212 75.51083333333334 424.64466666666664 C 72.37400000000001 413.07733333333334 71.212 399.6366666666667 71.62783333333333 388.06950000000006 C 72.04366666666667 376.50233333333335 74.03733333333334 366.8086666666666 77.02283333333334 356.96033333333327 C 80.00833333333334 347.112 83.98566666666666 337.109 88.94783333333334 327.2778333333333 C 93.91000000000001 317.44666666666666 99.85700000000001 307.7873333333333 107.54333333333334 297.37166666666667 C 115.22966666666666 286.95599999999996 124.65533333333333 275.78400000000005 134.12733333333333 266.0213333333333 C 143.59933333333333 256.25866666666667 153.11766666666665 247.90533333333335 163.5985 239.41466666666665 C 174.07933333333335 230.92399999999998 185.52266666666665 222.29600000000002 197.04683333333332 214.2351666666667 C 208.571 206.17433333333335 220.17600000000002 198.68066666666667 231.7501666666667 192.23533333333333 C 243.32433333333333 185.79 254.86766666666668 180.39300000000003 267.5555 175.082 C 280.24333333333334 169.771 294.0756666666667 164.54600000000002 307.87033333333335 160.0085 C 321.665 155.471 335.42199999999997 151.62099999999998 348.7749999999999 148.88816666666665 C 362.128 146.15533333333335 375.077 144.53966666666668 388.06566666666663 143.52566666666667 C 401.0543333333333 142.51166666666668 414.0826666666667 142.09933333333333 425.80283333333335 142.4775 C 437.52299999999997 142.85566666666668 447.93499999999995 144.02433333333335 459.59499999999997 146.18983333333335 C 471.25499999999994 148.35533333333333 484.163 151.51766666666666 497.04333333333335 156.588 C 509.92366666666675 161.65833333333333 522.7763333333334 168.63666666666668 533.534 176.57733333333337 C 544.2916666666666 184.51800000000003 552.9543333333332 193.42100000000002 558.6623333333333 201.43033333333335 C 564.3703333333333 209.43966666666665 567.1236666666666 216.55533333333332 569.3786666666666 225.42416666666668 C 571.6336666666666 234.293 573.3903333333334 244.915 573.4058333333334 255.89783333333332 C 573.4213333333333 266.8806666666667 571.6956666666666 278.22433333333333 568.7221666666667 289.53366666666665 C 565.7486666666667 300.843 561.5273333333333 312.118 556.4760000000001 322.0868333333333 C 551.4246666666667 332.05566666666664 545.5433333333334 340.7183333333333 538.933 350.03399999999993 C 532.3226666666667 359.3496666666667 524.9833333333333 369.3183333333333 519.4093333333334 376.24483333333336 C 513.8353333333333 383.1713333333333 510.02666666666664 387.05566666666664 504.34116666666665 393.0713333333333 C 498.6556666666667 399.087 491.0933333333333 407.234 487.31216666666666 411.30749999999995 L 483.531 415.381 M 336.144 152.824 L 330.5701666666667 150.9506666666667 C 324.9963333333333 149.07733333333334 313.8486666666667 145.33066666666667 302.0323333333333 141.77283333333335 C 290.216 138.215 277.731 134.846 265.2235 132.52566666666667 C 252.71599999999998 130.20533333333333 240.186 128.93366666666668 227.39149999999998 128.19466666666668 C 214.597 127.45566666666667 201.538 127.24933333333335 189.6941666666667 127.79933333333334 C 177.85033333333334 128.34933333333333 167.22166666666666 129.65566666666666 157.33366666666666 131.66666666666666 C 147.44566666666665 133.67766666666668 138.29833333333332 136.39333333333335 129.4295 140.34633333333332 C 120.56066666666668 144.29933333333335 111.97033333333333 149.4896666666667 104.04516666666667 156.17550000000003 C 96.12 162.86133333333333 88.86 171.04266666666663 83.20883333333333 179.94583333333333 C 77.55766666666666 188.84900000000002 73.51533333333333 198.47400000000002 70.59349999999999 207.6865 C 67.67166666666667 216.899 65.87033333333333 225.69899999999998 65.92866666666667 235.68500000000003 C 65.98700000000001 245.67099999999996 67.90499999999999 256.843 71.181 268.0321666666667 C 74.457 279.22133333333335 79.091 290.42766666666665 84.61166666666666 301.75416666666666 C 90.13233333333334 313.0806666666667 96.53966666666668 324.52733333333333 103.858 335.9398333333333 C 111.17633333333333 347.3523333333333 119.40566666666666 358.73066666666665 128.9035 369.86833333333334 C 138.40133333333333 381.00600000000003 149.16766666666666 391.903 160.221 402.0608333333333 C 171.27433333333332 412.21866666666665 182.6146666666667 421.63733333333334 195.30416666666667 430.9873333333333 C 207.99366666666666 440.33733333333333 222.03233333333333 449.6186666666667 235.69983333333334 457.97183333333334 C 249.36733333333333 466.325 262.66366666666664 473.75 277.3178333333333 480.59049999999996 C 291.972 487.43100000000004 307.984 493.68699999999995 323.20183333333335 499.1698333333334 C 338.41966666666667 504.6526666666667 352.8433333333333 509.3623333333333 368.5371666666667 513.0061666666667 C 384.231 516.65 401.195 519.2280000000001 417.92366666666663 520.706 C 434.6523333333333 522.1840000000001 451.1456666666666 522.562 466.92900000000003 521.4620000000001 C 482.7123333333334 520.3620000000001 497.78566666666666 517.784 511.0166666666667 513.5043333333334 C 524.2476666666666 509.2246666666667 535.6363333333334 503.24333333333334 545.1221666666667 495.4918333333333 C 554.6080000000001 487.74033333333335 562.1909999999999 478.21866666666665 568.0123333333333 466.54833333333335 C 573.8336666666667 454.878 577.8933333333333 441.059 579.9454999999999 427.61833333333334 C 581.9976666666666 414.17766666666665 582.0423333333333 401.11533333333335 580.3476666666667 389.0496666666666 C 578.6529999999999 376.984 575.2189999999999 365.91499999999996 570.7038333333334 355.3618333333333 C 566.1886666666666 344.8086666666666 560.5923333333334 334.7713333333333 557.7941666666667 329.75266666666664 L 554.996 324.734" bx:d="M 195.564 127.662 U 208.114 106.624 U 225.181 84.452 U 248.931 63.93 U 276.548 51.555 U 304.98 46.915 U 335.113 52.277 U 358.873 64.033 U 383.396 82.39 U 407.063 105.696 U 419.366 123.021 U 430.607 141.068 U 450.695 181.287 U 466.35 221.918 U 477.425 262.652 U 483.603 303.078 U 486.789 348.659 U 486.624 389.703 U 481.241 435.387 U 472.486 474.162 U 461.214 506.75 U 444.271 540.472 U 426.688 563.262 U 406.104 581.412 U 380.065 595.644 U 349.612 601.522 U 310.693 595.025 U 276.373 574.503 U 247.859 546.969 U 225.46 516.443 U 210.775 493.24 U 192.449 453.331 U 177.208 417.34 M 222.304 510.05 U 193.8 508.606 U 158.697 500.872 U 132.328 490.868 U 113.291 479.834 U 88.871 455.6 U 73.536 426.518 U 70.05 386.196 U 76.031 357.115 U 87.963 327.106 U 105.804 298.128 U 134.081 264.612 U 162.636 239.552 U 196.966 213.668 U 231.781 191.187 U 266.411 174.996 U 307.908 159.321 U 349.179 147.771 U 388.026 142.924 U 427.111 141.687 U 458.347 145.193 U 497.071 154.68 U 535.629 175.615 U 561.617 202.324 U 569.877 223.671 U 575.147 255.537 U 569.97 289.568 U 557.306 323.393 U 539.662 349.381 U 517.644 379.287 U 506.218 390.94 U 483.531 415.381 M 336.144 152.824 U 302.701 141.584 U 265.246 131.477 U 227.656 127.662 U 188.479 127.043 U 156.593 130.962 U 129.151 139.109 U 103.38 154.68 U 81.6 179.224 U 69.473 208.099 U 64.069 234.499 U 69.823 268.015 U 83.725 301.634 U 102.947 335.974 U 127.635 370.109 U 159.934 402.8 U 193.955 431.056 U 236.071 458.9 U 275.96 481.175 U 323.996 499.943 U 367.267 514.072 U 418.159 521.806 U 467.639 522.94 U 512.859 515.206 U 547.025 497.262 U 569.774 468.697 U 581.953 427.24 U 582.087 388.053 U 571.785 354.846 U 554.996 324.734 1@22861cfc"/>
      <path d="M 200.281 336.119 L 199.126 317.925 L 286.344 306.084 Q 285.188 290.2 275.369 279.947 Q 265.55 269.695 248.222 269.695 Q 230.316 269.695 218.62 282.547 Q 206.924 295.398 206.924 319.369 L 206.924 325.722 Q 208.945 348.826 222.086 360.811 Q 235.226 372.797 258.041 372.797 Q 270.171 372.797 279.99 368.753 Q 289.809 364.71 295.585 360.089 Q 298.762 362.111 300.639 364.855 Q 302.516 367.598 302.516 371.064 Q 302.516 376.551 296.307 381.316 Q 290.098 386.081 279.846 388.969 Q 269.593 391.857 256.886 391.857 Q 234.648 391.857 218.331 383.771 Q 202.014 375.685 193.206 359.656 Q 184.397 343.628 184.397 320.524 Q 184.397 304.062 189.162 291.211 Q 193.928 278.359 202.447 269.406 Q 210.967 260.453 222.808 255.688 Q 234.648 250.923 248.511 250.923 Q 266.128 250.923 279.557 258.432 Q 292.986 265.941 300.639 279.37 Q 308.292 292.799 308.292 310.127 Q 308.292 316.481 305.404 319.224 Q 302.516 321.968 297.318 322.545 Z M 437.667 352.581 Q 437.667 371.064 424.093 381.461 Q 410.519 391.857 384.816 391.857 Q 362.867 391.857 349.005 385.071 Q 335.143 378.284 335.143 370.197 Q 335.143 366.732 337.02 363.411 Q 338.897 360.089 342.651 358.068 Q 350.449 363.555 360.846 368.176 Q 371.243 372.797 384.527 372.797 Q 414.563 372.797 414.563 352.581 Q 414.563 344.205 409.509 338.863 Q 404.455 333.52 394.635 331.209 L 370.665 324.856 Q 353.048 320.524 344.962 311.427 Q 336.875 302.329 336.875 288.756 Q 336.875 273.449 349.294 262.186 Q 361.712 250.923 387.127 250.923 Q 400.7 250.923 410.808 253.667 Q 420.916 256.41 426.548 260.887 Q 432.179 265.363 432.179 270.561 Q 432.179 274.316 430.302 277.204 Q 428.425 280.092 425.248 281.536 Q 421.783 279.225 416.44 276.482 Q 411.097 273.738 403.877 271.861 Q 396.657 269.984 387.993 269.984 Q 375.286 269.984 367.488 274.893 Q 359.691 279.803 359.691 288.756 Q 359.691 295.109 364.167 299.875 Q 368.643 304.64 378.463 306.95 L 398.39 311.86 Q 418.028 316.481 427.847 326.444 Q 437.667 336.408 437.667 352.581 Z" style="fill: rgb(255, 255, 255); line-height: 191.825px; text-wrap-mode: nowrap;"/>
    </g>
    <g transform="matrix(1, 0, 0, 1, -3.848826, -4.564161)" style="">
      <title>Text</title>
      <path d="M 224.881 62.515 L 224.553 57.355 L 249.287 53.997 Q 248.959 49.493 246.175 46.585 Q 243.39 43.678 238.476 43.678 Q 233.398 43.678 230.081 47.323 Q 226.764 50.967 226.764 57.765 L 226.764 59.567 Q 227.338 66.119 231.064 69.517 Q 234.79 72.916 241.261 72.916 Q 244.7 72.916 247.485 71.77 Q 250.27 70.623 251.908 69.313 Q 252.808 69.886 253.341 70.664 Q 253.873 71.442 253.873 72.425 Q 253.873 73.981 252.112 75.332 Q 250.351 76.684 247.444 77.503 Q 244.537 78.322 240.933 78.322 Q 234.627 78.322 229.999 76.029 Q 225.372 73.735 222.874 69.19 Q 220.376 64.644 220.376 58.092 Q 220.376 53.424 221.727 49.78 Q 223.079 46.135 225.495 43.596 Q 227.911 41.057 231.269 39.706 Q 234.627 38.355 238.558 38.355 Q 243.554 38.355 247.362 40.484 Q 251.17 42.613 253.341 46.422 Q 255.511 50.23 255.511 55.144 Q 255.511 56.946 254.692 57.724 Q 253.873 58.502 252.399 58.666 Z M 278.523 72.998 Q 281.962 72.998 284.215 72.302 Q 286.467 71.606 287.45 70.951 L 287.45 59.075 L 277.294 60.14 Q 273.035 60.468 270.988 62.024 Q 268.94 63.58 268.94 66.528 Q 268.94 69.558 271.356 71.278 Q 273.772 72.998 278.523 72.998 Z M 278.441 38.355 Q 285.566 38.355 289.743 41.549 Q 293.92 44.743 293.92 51.622 L 293.92 71.033 Q 293.92 72.834 293.224 73.776 Q 292.528 74.718 291.135 75.537 Q 289.17 76.602 285.894 77.503 Q 282.618 78.404 278.523 78.404 Q 270.824 78.404 266.606 75.373 Q 262.388 72.343 262.388 66.61 Q 262.388 61.287 265.951 58.461 Q 269.514 55.635 275.82 55.062 L 287.45 53.916 L 287.45 51.622 Q 287.45 47.527 284.993 45.644 Q 282.536 43.76 278.359 43.76 Q 275.001 43.76 271.93 44.743 Q 268.858 45.726 266.483 46.954 Q 265.828 46.381 265.296 45.603 Q 264.763 44.825 264.763 44.006 Q 264.763 41.876 267.139 40.73 Q 269.35 39.583 272.257 38.969 Q 275.165 38.355 278.441 38.355 Z M 332.577 67.183 Q 332.577 72.425 328.727 75.373 Q 324.878 78.322 317.589 78.322 Q 311.365 78.322 307.433 76.397 Q 303.502 74.472 303.502 72.179 Q 303.502 71.196 304.034 70.255 Q 304.567 69.313 305.632 68.739 Q 307.843 70.296 310.791 71.606 Q 313.74 72.916 317.507 72.916 Q 326.025 72.916 326.025 67.183 Q 326.025 64.808 324.591 63.293 Q 323.158 61.778 320.374 61.123 L 313.576 59.321 Q 308.58 58.092 306.287 55.513 Q 303.994 52.933 303.994 49.083 Q 303.994 44.743 307.515 41.549 Q 311.037 38.355 318.244 38.355 Q 322.093 38.355 324.96 39.133 Q 327.826 39.911 329.423 41.18 Q 331.021 42.45 331.021 43.924 Q 331.021 44.988 330.488 45.807 Q 329.956 46.626 329.055 47.036 Q 328.072 46.381 326.557 45.603 Q 325.042 44.825 322.994 44.292 Q 320.947 43.76 318.49 43.76 Q 314.886 43.76 312.675 45.152 Q 310.464 46.545 310.464 49.083 Q 310.464 50.885 311.733 52.237 Q 313.003 53.588 315.787 54.243 L 321.438 55.635 Q 327.007 56.946 329.792 59.771 Q 332.577 62.597 332.577 67.183 Z M 348.956 68.821 Q 347.563 66.201 345.598 61.737 Q 343.632 57.273 341.544 51.745 Q 339.455 46.217 337.571 40.484 Q 338.145 39.665 339.087 39.174 Q 340.028 38.682 341.093 38.682 Q 342.485 38.682 343.386 39.419 Q 344.287 40.156 344.861 41.876 Q 347.318 48.756 350.02 55.554 Q 352.723 62.351 355.999 69.64 L 356.327 69.64 Q 358.046 66.201 359.93 61.041 Q 361.814 55.881 363.534 50.148 Q 365.254 44.415 366.4 39.337 Q 366.974 39.092 367.67 38.887 Q 368.366 38.682 369.185 38.682 Q 370.577 38.682 371.478 39.378 Q 372.379 40.074 372.379 41.467 Q 372.379 42.777 371.642 45.848 Q 370.905 48.92 369.635 52.974 Q 368.366 57.028 366.687 61.573 Q 365.008 66.119 363.083 70.5 Q 361.159 74.882 359.193 78.404 Q 355.426 85.365 352.313 89.092 Q 349.201 92.818 346.58 92.818 Q 344.697 92.818 343.673 91.835 Q 342.649 90.852 342.404 89.542 Q 344.205 87.986 346.458 85.406 Q 348.71 82.826 350.798 79.837 Q 352.887 76.848 354.197 74.145 Q 352.805 73.735 351.617 72.671 Q 350.43 71.606 348.956 68.821 Z" style="line-height: 191.825px; text-wrap-mode: nowrap; fill: rgb(255, 255, 255);"/>
      <path d="M 251.685 148.756 Q 251.685 154.489 247.426 157.724 Q 243.167 160.959 235.059 160.959 Q 228.507 160.959 224.33 158.994 Q 220.154 157.028 220.154 153.752 Q 220.154 152.36 220.809 151.172 Q 221.464 149.985 222.529 149.33 Q 224.822 150.804 227.852 151.95 Q 230.882 153.097 234.732 153.097 Q 241.693 153.097 241.693 148.838 Q 241.693 147.036 240.465 145.931 Q 239.236 144.825 236.697 144.334 L 232.029 143.105 Q 226.05 141.795 223.143 139.01 Q 220.235 136.226 220.235 131.557 Q 220.235 126.398 224.494 123.081 Q 228.753 119.764 236.288 119.764 Q 240.219 119.764 243.331 120.542 Q 246.443 121.32 248.204 122.794 Q 249.965 124.268 249.965 126.316 Q 249.965 127.708 249.351 128.814 Q 248.737 129.919 247.754 130.493 Q 246.771 129.919 245.092 129.223 Q 243.413 128.527 241.284 128.077 Q 239.154 127.626 237.025 127.626 Q 233.831 127.626 231.988 128.65 Q 230.145 129.674 230.145 131.557 Q 230.145 132.95 231.21 133.932 Q 232.275 134.915 234.814 135.489 L 238.991 136.471 Q 245.624 138.027 248.655 141.017 Q 251.685 144.006 251.685 148.756 Z M 280.398 127.954 Q 275.484 127.954 272.167 131.148 Q 268.85 134.342 268.85 140.484 Q 268.85 146.545 272.044 149.657 Q 275.238 152.769 280.316 152.769 Q 283.346 152.769 285.434 151.991 Q 287.523 151.213 289.079 150.312 Q 290.307 151.05 291.004 152.073 Q 291.7 153.097 291.7 154.571 Q 291.7 157.356 288.342 159.117 Q 284.984 160.878 279.497 160.878 Q 273.272 160.878 268.563 158.625 Q 263.854 156.373 261.192 151.787 Q 258.53 147.2 258.53 140.484 Q 258.53 133.523 261.356 128.937 Q 264.181 124.35 268.891 122.098 Q 273.6 119.846 279.251 119.846 Q 284.656 119.846 287.932 121.729 Q 291.208 123.613 291.208 126.398 Q 291.208 127.626 290.553 128.691 Q 289.898 129.756 288.997 130.411 Q 287.359 129.428 285.312 128.691 Q 283.264 127.954 280.398 127.954 Z M 299.583 109.444 Q 299.583 107.069 301.262 105.431 Q 302.941 103.793 305.48 103.793 Q 308.101 103.793 309.698 105.431 Q 311.295 107.069 311.295 109.444 Q 311.295 111.738 309.698 113.417 Q 308.101 115.095 305.48 115.095 Q 302.941 115.095 301.262 113.417 Q 299.583 111.738 299.583 109.444 Z M 300.402 138.109 L 310.558 138.109 L 310.558 159.567 Q 309.903 159.813 308.674 160.018 Q 307.446 160.222 305.972 160.222 Q 303.187 160.222 301.795 159.199 Q 300.402 158.175 300.402 155.554 Z M 310.558 143.269 L 300.402 143.269 L 300.402 121.32 Q 301.058 121.074 302.327 120.869 Q 303.597 120.665 305.071 120.665 Q 307.937 120.665 309.248 121.688 Q 310.558 122.712 310.558 125.415 Z M 325.848 145.48 L 325.438 138.437 L 347.387 135.161 Q 347.142 132.049 345.012 129.756 Q 342.883 127.462 338.788 127.462 Q 334.611 127.462 331.826 130.37 Q 329.042 133.277 328.96 138.683 L 329.206 142.941 Q 329.943 148.183 333.26 150.64 Q 336.577 153.097 341.654 153.097 Q 345.094 153.097 348.043 152.073 Q 350.991 151.05 352.711 149.821 Q 353.858 150.558 354.554 151.664 Q 355.25 152.769 355.25 154.08 Q 355.25 156.209 353.366 157.724 Q 351.482 159.24 348.288 160.059 Q 345.094 160.878 340.999 160.878 Q 334.693 160.878 329.82 158.543 Q 324.947 156.209 322.203 151.541 Q 319.46 146.873 319.46 139.911 Q 319.46 134.915 321.016 131.148 Q 322.572 127.38 325.234 124.883 Q 327.895 122.385 331.417 121.115 Q 334.939 119.846 338.788 119.846 Q 344.193 119.846 348.247 122.016 Q 352.301 124.186 354.636 128.036 Q 356.97 131.885 356.97 136.881 Q 356.97 139.174 355.782 140.28 Q 354.595 141.385 352.465 141.631 Z M 400.899 134.424 L 400.899 142.368 L 390.825 142.368 L 390.825 134.833 Q 390.825 131.23 388.778 129.551 Q 386.73 127.872 383.29 127.872 Q 380.752 127.872 378.745 128.486 Q 376.738 129.1 375.182 129.919 L 375.182 142.368 L 365.109 142.368 L 365.109 129.264 Q 365.109 127.299 365.928 126.029 Q 366.747 124.76 368.385 123.695 Q 370.842 122.057 374.732 120.951 Q 378.622 119.846 383.372 119.846 Q 391.644 119.846 396.272 123.531 Q 400.899 127.217 400.899 134.424 Z M 365.109 138.355 L 375.182 138.355 L 375.182 159.567 Q 374.527 159.813 373.299 160.018 Q 372.07 160.222 370.596 160.222 Q 367.811 160.222 366.46 159.199 Q 365.109 158.175 365.109 155.554 Z M 390.825 138.355 L 400.899 138.355 L 400.899 159.567 Q 400.326 159.813 399.056 160.018 Q 397.787 160.222 396.394 160.222 Q 393.528 160.222 392.177 159.199 Q 390.825 158.175 390.825 155.554 Z M 431.352 127.954 Q 426.438 127.954 423.122 131.148 Q 419.805 134.342 419.805 140.484 Q 419.805 146.545 422.999 149.657 Q 426.193 152.769 431.271 152.769 Q 434.301 152.769 436.389 151.991 Q 438.478 151.213 440.034 150.312 Q 441.262 151.05 441.959 152.073 Q 442.655 153.097 442.655 154.571 Q 442.655 157.356 439.297 159.117 Q 435.939 160.878 430.452 160.878 Q 424.227 160.878 419.518 158.625 Q 414.809 156.373 412.147 151.787 Q 409.485 147.2 409.485 140.484 Q 409.485 133.523 412.311 128.937 Q 415.136 124.35 419.846 122.098 Q 424.555 119.846 430.206 119.846 Q 435.611 119.846 438.887 121.729 Q 442.163 123.613 442.163 126.398 Q 442.163 127.626 441.508 128.691 Q 440.853 129.756 439.952 130.411 Q 438.314 129.428 436.266 128.691 Q 434.219 127.954 431.352 127.954 Z M 454.353 145.48 L 453.944 138.437 L 475.893 135.161 Q 475.647 132.049 473.518 129.756 Q 471.389 127.462 467.294 127.462 Q 463.117 127.462 460.332 130.37 Q 457.547 133.277 457.466 138.683 L 457.711 142.941 Q 458.448 148.183 461.765 150.64 Q 465.082 153.097 470.16 153.097 Q 473.6 153.097 476.548 152.073 Q 479.497 151.05 481.217 149.821 Q 482.363 150.558 483.059 151.664 Q 483.755 152.769 483.755 154.08 Q 483.755 156.209 481.872 157.724 Q 479.988 159.24 476.794 160.059 Q 473.6 160.878 469.505 160.878 Q 463.199 160.878 458.325 158.543 Q 453.452 156.209 450.709 151.541 Q 447.965 146.873 447.965 139.911 Q 447.965 134.915 449.521 131.148 Q 451.077 127.38 453.739 124.883 Q 456.401 122.385 459.923 121.115 Q 463.444 119.846 467.294 119.846 Q 472.699 119.846 476.753 122.016 Q 480.807 124.186 483.141 128.036 Q 485.475 131.885 485.475 136.881 Q 485.475 139.174 484.288 140.28 Q 483.1 141.385 480.971 141.631 Z" style="line-height: 191.825px; text-wrap-mode: nowrap; fill: rgb(255, 255, 255);"/>
    </g>
  </g>
</svg>